<svg xmlns="http://www.w3.org/2000/svg" viewBox="0 0 800 450" width="100%" height="100%">
  <defs>
    <linearGradient id="bg2" x1="0%" y1="0%" x2="100%" y2="100%">
      <stop offset="0%" stop-color="#0f1418"/>
      <stop offset="50%" stop-color="#191c24"/>
      <stop offset="100%" stop-color="#141a1f"/>
    </linearGradient>
    <linearGradient id="orangeGrad" x1="0%" y1="0%" x2="100%" y2="0%">
      <stop offset="0%" stop-color="#f5a623"/>
      <stop offset="100%" stop-color="#ff7a00"/>
    </linearGradient>
  </defs>
  <rect width="800" height="450" fill="url(#bg2)"/>
  <circle cx="400" cy="225" r="180" fill="#f5a623" opacity="0.06" filter="blur(40px)"/>

  <!-- E-commerce Store Mockup -->
  <rect x="120" y="70" width="560" height="310" rx="16" fill="#141a1f" stroke="#242b32" stroke-width="2"/>
  <circle cx="150" cy="95" r="5" fill="#ff5f56"/>
  <circle cx="165" cy="95" r="5" fill="#ffbd2e"/>
  <circle cx="180" cy="95" r="5" fill="#27c93f"/>
  <rect x="220" y="88" width="160" height="14" rx="7" fill="#1f2830"/>

  <!-- Products row -->
  <rect x="150" y="130" width="150" height="180" rx="10" fill="#1a2329" stroke="#242b32"/>
  <rect x="165" y="145" width="120" height="90" rx="8" fill="#242b32"/>
  <rect x="165" y="248" width="80" height="12" rx="4" fill="#7a8491"/>
  <rect x="165" y="268" width="45" height="14" rx="4" fill="url(#orangeGrad)"/>

  <rect x="325" y="130" width="150" height="180" rx="10" fill="#1a2329" stroke="#242b32"/>
  <rect x="340" y="145" width="120" height="90" rx="8" fill="#242b32"/>
  <rect x="340" y="248" width="80" height="12" rx="4" fill="#7a8491"/>
  <rect x="340" y="268" width="45" height="14" rx="4" fill="url(#orangeGrad)"/>

  <rect x="500" y="130" width="150" height="180" rx="10" fill="#1a2329" stroke="#242b32"/>
  <rect x="515" y="145" width="120" height="90" rx="8" fill="#242b32"/>
  <rect x="515" y="248" width="80" height="12" rx="4" fill="#7a8491"/>
  <rect x="515" y="268" width="45" height="14" rx="4" fill="url(#orangeGrad)"/>

  <rect x="150" y="325" width="500" height="35" rx="8" fill="#1a2329" stroke="#242b32"/>
  <text x="170" y="348" fill="#7a8491" font-family="Inter, sans-serif" font-size="13">Stripe Checkout Integration Active</text>
  <circle cx="630" cy="342" r="6" fill="#27c93f"/>
</svg>
